<mxfile host="app.diagrams.net" modified="2022-11-27T22:03:52.404Z" agent="5.0 (Macintosh; Intel Mac OS X 10_15_7) AppleWebKit/605.1.15 (KHTML, like Gecko) Version/16.1 Safari/605.1.15" etag="rcquw5luzja_Yj8v0Uwp" version="20.5.3" type="github">
  <diagram id="R2lEEEUBdFMjLlhIrx00" name="Page-1">
    <mxGraphModel dx="1705" dy="454" grid="1" gridSize="10" guides="1" tooltips="1" connect="1" arrows="1" fold="1" page="1" pageScale="1" pageWidth="850" pageHeight="1100" math="0" shadow="0" extFonts="Permanent Marker^https://fonts.googleapis.com/css?family=Permanent+Marker">
      <root>
        <mxCell id="0" />
        <mxCell id="1" parent="0" />
        <mxCell id="aG9_IfBSH0ol4kUv04LN-1" value="ART_OBJECT" style="rounded=0;whiteSpace=wrap;html=1;" parent="1" vertex="1">
          <mxGeometry x="14" y="570" width="90" height="20" as="geometry" />
        </mxCell>
        <mxCell id="aG9_IfBSH0ol4kUv04LN-3" value="ID_no" style="ellipse;whiteSpace=wrap;html=1;align=center;fontStyle=4;" parent="1" vertex="1">
          <mxGeometry x="140" y="515" width="50" height="20" as="geometry" />
        </mxCell>
        <mxCell id="aG9_IfBSH0ol4kUv04LN-5" value="Year_created" style="ellipse;whiteSpace=wrap;html=1;align=center;" parent="1" vertex="1">
          <mxGeometry x="-14" y="505" width="85" height="20" as="geometry" />
        </mxCell>
        <mxCell id="aG9_IfBSH0ol4kUv04LN-6" value="Title" style="ellipse;whiteSpace=wrap;html=1;" parent="1" vertex="1">
          <mxGeometry x="72.5" y="635" width="30" height="20" as="geometry" />
        </mxCell>
        <mxCell id="aG9_IfBSH0ol4kUv04LN-8" value="ArtObj_desrip" style="ellipse;whiteSpace=wrap;html=1;" parent="1" vertex="1">
          <mxGeometry x="-140" y="635" width="115" height="25" as="geometry" />
        </mxCell>
        <mxCell id="aG9_IfBSH0ol4kUv04LN-10" value="" style="endArrow=none;html=1;rounded=0;exitX=1;exitY=0.5;exitDx=0;exitDy=0;" parent="1" source="aG9_IfBSH0ol4kUv04LN-8" edge="1">
          <mxGeometry width="50" height="50" relative="1" as="geometry">
            <mxPoint x="-16" y="720" as="sourcePoint" />
            <mxPoint x="20" y="590" as="targetPoint" />
          </mxGeometry>
        </mxCell>
        <mxCell id="aG9_IfBSH0ol4kUv04LN-12" value="" style="endArrow=none;html=1;rounded=0;entryX=0.5;entryY=1;entryDx=0;entryDy=0;exitX=1;exitY=0;exitDx=0;exitDy=0;" parent="1" source="aG9_IfBSH0ol4kUv04LN-1" target="aG9_IfBSH0ol4kUv04LN-3" edge="1">
          <mxGeometry width="50" height="50" relative="1" as="geometry">
            <mxPoint x="-16" y="720" as="sourcePoint" />
            <mxPoint x="34" y="670" as="targetPoint" />
          </mxGeometry>
        </mxCell>
        <mxCell id="aG9_IfBSH0ol4kUv04LN-15" value="PAINTING" style="rounded=0;whiteSpace=wrap;html=1;" parent="1" vertex="1">
          <mxGeometry x="-134" y="770" width="70" height="20" as="geometry" />
        </mxCell>
        <mxCell id="aG9_IfBSH0ol4kUv04LN-16" value="SCULPTURE" style="rounded=0;whiteSpace=wrap;html=1;" parent="1" vertex="1">
          <mxGeometry x="66" y="790" width="80" height="20" as="geometry" />
        </mxCell>
        <mxCell id="aG9_IfBSH0ol4kUv04LN-17" value="STATUE" style="rounded=0;whiteSpace=wrap;html=1;" parent="1" vertex="1">
          <mxGeometry x="228" y="745" width="60" height="20" as="geometry" />
        </mxCell>
        <mxCell id="aG9_IfBSH0ol4kUv04LN-18" value="Paint_type" style="ellipse;whiteSpace=wrap;html=1;" parent="1" vertex="1">
          <mxGeometry x="-124" y="810" width="70" height="20" as="geometry" />
        </mxCell>
        <mxCell id="aG9_IfBSH0ol4kUv04LN-19" value="Style" style="ellipse;whiteSpace=wrap;html=1;" parent="1" vertex="1">
          <mxGeometry x="-224" y="770" width="75" height="20" as="geometry" />
        </mxCell>
        <mxCell id="aG9_IfBSH0ol4kUv04LN-20" value="Drawn_on" style="ellipse;whiteSpace=wrap;html=1;" parent="1" vertex="1">
          <mxGeometry x="-194" y="800" width="70" height="20" as="geometry" />
        </mxCell>
        <mxCell id="aG9_IfBSH0ol4kUv04LN-21" value="" style="endArrow=none;html=1;rounded=0;exitX=1;exitY=0.5;exitDx=0;exitDy=0;entryX=0;entryY=0.5;entryDx=0;entryDy=0;" parent="1" source="aG9_IfBSH0ol4kUv04LN-19" target="aG9_IfBSH0ol4kUv04LN-15" edge="1">
          <mxGeometry width="50" height="50" relative="1" as="geometry">
            <mxPoint x="-74" y="870" as="sourcePoint" />
            <mxPoint x="-24" y="820" as="targetPoint" />
          </mxGeometry>
        </mxCell>
        <mxCell id="aG9_IfBSH0ol4kUv04LN-22" value="" style="endArrow=none;html=1;rounded=0;exitX=0.781;exitY=0.017;exitDx=0;exitDy=0;exitPerimeter=0;entryX=0;entryY=1;entryDx=0;entryDy=0;" parent="1" source="aG9_IfBSH0ol4kUv04LN-20" target="aG9_IfBSH0ol4kUv04LN-15" edge="1">
          <mxGeometry width="50" height="50" relative="1" as="geometry">
            <mxPoint x="-74" y="870" as="sourcePoint" />
            <mxPoint x="-24" y="820" as="targetPoint" />
          </mxGeometry>
        </mxCell>
        <mxCell id="aG9_IfBSH0ol4kUv04LN-23" value="" style="endArrow=none;html=1;rounded=0;entryX=0.5;entryY=1;entryDx=0;entryDy=0;exitX=0.364;exitY=0.058;exitDx=0;exitDy=0;exitPerimeter=0;" parent="1" source="aG9_IfBSH0ol4kUv04LN-18" target="aG9_IfBSH0ol4kUv04LN-15" edge="1">
          <mxGeometry width="50" height="50" relative="1" as="geometry">
            <mxPoint x="-74" y="870" as="sourcePoint" />
            <mxPoint x="-24" y="820" as="targetPoint" />
          </mxGeometry>
        </mxCell>
        <mxCell id="aG9_IfBSH0ol4kUv04LN-24" value="Material" style="ellipse;whiteSpace=wrap;html=1;" parent="1" vertex="1">
          <mxGeometry x="166" y="790" width="50" height="20" as="geometry" />
        </mxCell>
        <mxCell id="aG9_IfBSH0ol4kUv04LN-25" value="Height" style="ellipse;whiteSpace=wrap;html=1;" parent="1" vertex="1">
          <mxGeometry x="146" y="820" width="50" height="20" as="geometry" />
        </mxCell>
        <mxCell id="aG9_IfBSH0ol4kUv04LN-26" value="Weight" style="ellipse;whiteSpace=wrap;html=1;" parent="1" vertex="1">
          <mxGeometry x="86" y="830" width="50" height="20" as="geometry" />
        </mxCell>
        <mxCell id="aG9_IfBSH0ol4kUv04LN-27" value="Style" style="ellipse;whiteSpace=wrap;html=1;" parent="1" vertex="1">
          <mxGeometry x="136" y="760" width="39" height="20" as="geometry" />
        </mxCell>
        <mxCell id="aG9_IfBSH0ol4kUv04LN-28" value="" style="endArrow=none;html=1;rounded=0;entryX=0.5;entryY=1;entryDx=0;entryDy=0;exitX=0.393;exitY=0.1;exitDx=0;exitDy=0;exitPerimeter=0;" parent="1" source="aG9_IfBSH0ol4kUv04LN-26" target="aG9_IfBSH0ol4kUv04LN-16" edge="1">
          <mxGeometry width="50" height="50" relative="1" as="geometry">
            <mxPoint x="66" y="930" as="sourcePoint" />
            <mxPoint x="116" y="880" as="targetPoint" />
          </mxGeometry>
        </mxCell>
        <mxCell id="aG9_IfBSH0ol4kUv04LN-29" value="" style="endArrow=none;html=1;rounded=0;entryX=1;entryY=1;entryDx=0;entryDy=0;exitX=0;exitY=0;exitDx=0;exitDy=0;" parent="1" source="aG9_IfBSH0ol4kUv04LN-25" target="aG9_IfBSH0ol4kUv04LN-16" edge="1">
          <mxGeometry width="50" height="50" relative="1" as="geometry">
            <mxPoint x="66" y="930" as="sourcePoint" />
            <mxPoint x="116" y="880" as="targetPoint" />
          </mxGeometry>
        </mxCell>
        <mxCell id="aG9_IfBSH0ol4kUv04LN-30" value="" style="endArrow=none;html=1;rounded=0;entryX=1;entryY=0.5;entryDx=0;entryDy=0;exitX=0;exitY=0.5;exitDx=0;exitDy=0;" parent="1" source="aG9_IfBSH0ol4kUv04LN-24" target="aG9_IfBSH0ol4kUv04LN-16" edge="1">
          <mxGeometry width="50" height="50" relative="1" as="geometry">
            <mxPoint x="66" y="930" as="sourcePoint" />
            <mxPoint x="116" y="880" as="targetPoint" />
          </mxGeometry>
        </mxCell>
        <mxCell id="aG9_IfBSH0ol4kUv04LN-31" value="" style="endArrow=none;html=1;rounded=0;entryX=0.305;entryY=1.017;entryDx=0;entryDy=0;entryPerimeter=0;exitX=0.92;exitY=0.02;exitDx=0;exitDy=0;exitPerimeter=0;" parent="1" source="aG9_IfBSH0ol4kUv04LN-16" target="aG9_IfBSH0ol4kUv04LN-27" edge="1">
          <mxGeometry width="50" height="50" relative="1" as="geometry">
            <mxPoint x="66" y="930" as="sourcePoint" />
            <mxPoint x="116" y="880" as="targetPoint" />
          </mxGeometry>
        </mxCell>
        <mxCell id="aG9_IfBSH0ol4kUv04LN-32" value="OTHER" style="rounded=0;whiteSpace=wrap;html=1;" parent="1" vertex="1">
          <mxGeometry x="-25" y="790" width="50" height="20" as="geometry" />
        </mxCell>
        <mxCell id="aG9_IfBSH0ol4kUv04LN-33" value="Type" style="ellipse;whiteSpace=wrap;html=1;" parent="1" vertex="1">
          <mxGeometry x="-35" y="830" width="30" height="20" as="geometry" />
        </mxCell>
        <mxCell id="aG9_IfBSH0ol4kUv04LN-35" value="Style" style="ellipse;whiteSpace=wrap;html=1;" parent="1" vertex="1">
          <mxGeometry y="830" width="35" height="20" as="geometry" />
        </mxCell>
        <mxCell id="aG9_IfBSH0ol4kUv04LN-36" value="" style="endArrow=none;html=1;rounded=0;exitX=0.5;exitY=0;exitDx=0;exitDy=0;entryX=0.393;entryY=1.058;entryDx=0;entryDy=0;entryPerimeter=0;" parent="1" source="aG9_IfBSH0ol4kUv04LN-33" target="aG9_IfBSH0ol4kUv04LN-32" edge="1">
          <mxGeometry width="50" height="50" relative="1" as="geometry">
            <mxPoint x="15" y="840" as="sourcePoint" />
            <mxPoint x="65" y="790" as="targetPoint" />
          </mxGeometry>
        </mxCell>
        <mxCell id="aG9_IfBSH0ol4kUv04LN-37" value="" style="endArrow=none;html=1;rounded=0;exitX=0.5;exitY=0;exitDx=0;exitDy=0;entryX=0.643;entryY=1.1;entryDx=0;entryDy=0;entryPerimeter=0;" parent="1" source="aG9_IfBSH0ol4kUv04LN-35" target="aG9_IfBSH0ol4kUv04LN-32" edge="1">
          <mxGeometry width="50" height="50" relative="1" as="geometry">
            <mxPoint x="15" y="840" as="sourcePoint" />
            <mxPoint x="65" y="790" as="targetPoint" />
          </mxGeometry>
        </mxCell>
        <mxCell id="4bkVH7N1i63I4MIoj6SS-14" value="COLLECTION" style="rounded=0;whiteSpace=wrap;html=1;" parent="1" vertex="1">
          <mxGeometry x="469" y="550" width="80" height="20" as="geometry" />
        </mxCell>
        <mxCell id="4bkVH7N1i63I4MIoj6SS-15" value="Contact_person" style="ellipse;whiteSpace=wrap;html=1;align=center;" parent="1" vertex="1">
          <mxGeometry x="426" y="630" width="100" height="30" as="geometry" />
        </mxCell>
        <mxCell id="4bkVH7N1i63I4MIoj6SS-16" value="Phone" style="ellipse;whiteSpace=wrap;html=1;align=center;" parent="1" vertex="1">
          <mxGeometry x="494" y="480" width="80" height="30" as="geometry" />
        </mxCell>
        <mxCell id="4bkVH7N1i63I4MIoj6SS-17" value="Address" style="ellipse;whiteSpace=wrap;html=1;align=center;" parent="1" vertex="1">
          <mxGeometry x="574" y="520" width="80" height="30" as="geometry" />
        </mxCell>
        <mxCell id="4bkVH7N1i63I4MIoj6SS-18" value="C_descrip" style="ellipse;whiteSpace=wrap;html=1;align=center;" parent="1" vertex="1">
          <mxGeometry x="569" y="570" width="80" height="30" as="geometry" />
        </mxCell>
        <mxCell id="4bkVH7N1i63I4MIoj6SS-19" value="Type" style="ellipse;whiteSpace=wrap;html=1;align=center;" parent="1" vertex="1">
          <mxGeometry x="554" y="630" width="80" height="30" as="geometry" />
        </mxCell>
        <mxCell id="4bkVH7N1i63I4MIoj6SS-20" value="&lt;u&gt;Name&lt;/u&gt;" style="ellipse;whiteSpace=wrap;html=1;align=center;" parent="1" vertex="1">
          <mxGeometry x="504" y="590" width="50" height="30" as="geometry" />
        </mxCell>
        <mxCell id="4bkVH7N1i63I4MIoj6SS-21" value="" style="endArrow=none;html=1;rounded=0;exitX=0.5;exitY=0;exitDx=0;exitDy=0;entryX=0.5;entryY=1;entryDx=0;entryDy=0;" parent="1" source="4bkVH7N1i63I4MIoj6SS-15" target="4bkVH7N1i63I4MIoj6SS-14" edge="1">
          <mxGeometry relative="1" as="geometry">
            <mxPoint x="454" y="606" as="sourcePoint" />
            <mxPoint x="534" y="576" as="targetPoint" />
          </mxGeometry>
        </mxCell>
        <mxCell id="4bkVH7N1i63I4MIoj6SS-22" value="" style="endArrow=none;html=1;rounded=0;entryX=0.5;entryY=0;entryDx=0;entryDy=0;exitX=0.75;exitY=1;exitDx=0;exitDy=0;" parent="1" source="4bkVH7N1i63I4MIoj6SS-14" target="4bkVH7N1i63I4MIoj6SS-20" edge="1">
          <mxGeometry relative="1" as="geometry">
            <mxPoint x="374" y="576" as="sourcePoint" />
            <mxPoint x="534" y="576" as="targetPoint" />
          </mxGeometry>
        </mxCell>
        <mxCell id="4bkVH7N1i63I4MIoj6SS-23" value="" style="endArrow=none;html=1;rounded=0;exitX=0.363;exitY=-0.067;exitDx=0;exitDy=0;exitPerimeter=0;entryX=1;entryY=1;entryDx=0;entryDy=0;" parent="1" source="4bkVH7N1i63I4MIoj6SS-19" target="4bkVH7N1i63I4MIoj6SS-14" edge="1">
          <mxGeometry relative="1" as="geometry">
            <mxPoint x="374" y="576" as="sourcePoint" />
            <mxPoint x="534" y="576" as="targetPoint" />
          </mxGeometry>
        </mxCell>
        <mxCell id="4bkVH7N1i63I4MIoj6SS-24" value="" style="endArrow=none;html=1;rounded=0;exitX=0.644;exitY=0.025;exitDx=0;exitDy=0;exitPerimeter=0;entryX=0.592;entryY=1.017;entryDx=0;entryDy=0;entryPerimeter=0;" parent="1" source="4bkVH7N1i63I4MIoj6SS-14" target="4bkVH7N1i63I4MIoj6SS-16" edge="1">
          <mxGeometry relative="1" as="geometry">
            <mxPoint x="374" y="576" as="sourcePoint" />
            <mxPoint x="534" y="576" as="targetPoint" />
          </mxGeometry>
        </mxCell>
        <mxCell id="4bkVH7N1i63I4MIoj6SS-25" value="" style="endArrow=none;html=1;rounded=0;exitX=1;exitY=0;exitDx=0;exitDy=0;entryX=0;entryY=0.5;entryDx=0;entryDy=0;" parent="1" source="4bkVH7N1i63I4MIoj6SS-14" target="4bkVH7N1i63I4MIoj6SS-17" edge="1">
          <mxGeometry relative="1" as="geometry">
            <mxPoint x="374" y="576" as="sourcePoint" />
            <mxPoint x="534" y="576" as="targetPoint" />
          </mxGeometry>
        </mxCell>
        <mxCell id="4bkVH7N1i63I4MIoj6SS-26" value="" style="endArrow=none;html=1;rounded=0;exitX=1;exitY=0.5;exitDx=0;exitDy=0;entryX=0.04;entryY=0.239;entryDx=0;entryDy=0;entryPerimeter=0;" parent="1" source="4bkVH7N1i63I4MIoj6SS-14" target="4bkVH7N1i63I4MIoj6SS-18" edge="1">
          <mxGeometry relative="1" as="geometry">
            <mxPoint x="374" y="576" as="sourcePoint" />
            <mxPoint x="534" y="576" as="targetPoint" />
          </mxGeometry>
        </mxCell>
        <mxCell id="4bkVH7N1i63I4MIoj6SS-27" value="ARTIST" style="rounded=0;whiteSpace=wrap;html=1;" parent="1" vertex="1">
          <mxGeometry x="125" y="280" width="80" height="20" as="geometry" />
        </mxCell>
        <mxCell id="4bkVH7N1i63I4MIoj6SS-28" value="Main_style" style="ellipse;whiteSpace=wrap;html=1;align=center;" parent="1" vertex="1">
          <mxGeometry x="29" y="230" width="100" height="30" as="geometry" />
        </mxCell>
        <mxCell id="4bkVH7N1i63I4MIoj6SS-29" value="&lt;u&gt;Name&lt;/u&gt;" style="ellipse;whiteSpace=wrap;html=1;align=center;" parent="1" vertex="1">
          <mxGeometry x="133" y="220" width="80" height="30" as="geometry" />
        </mxCell>
        <mxCell id="4bkVH7N1i63I4MIoj6SS-30" value="Date_born" style="ellipse;whiteSpace=wrap;html=1;align=center;" parent="1" vertex="1">
          <mxGeometry x="230" y="250" width="80" height="30" as="geometry" />
        </mxCell>
        <mxCell id="4bkVH7N1i63I4MIoj6SS-31" value="Date_died" style="ellipse;whiteSpace=wrap;html=1;align=center;" parent="1" vertex="1">
          <mxGeometry x="6" y="280" width="80" height="30" as="geometry" />
        </mxCell>
        <mxCell id="4bkVH7N1i63I4MIoj6SS-32" value="Country_of_origin" style="ellipse;whiteSpace=wrap;html=1;align=center;" parent="1" vertex="1">
          <mxGeometry x="225.5" y="330" width="121" height="30" as="geometry" />
        </mxCell>
        <mxCell id="4bkVH7N1i63I4MIoj6SS-33" value="Epoch" style="ellipse;whiteSpace=wrap;html=1;align=center;" parent="1" vertex="1">
          <mxGeometry x="263" y="290" width="50" height="30" as="geometry" />
        </mxCell>
        <mxCell id="4bkVH7N1i63I4MIoj6SS-36" value="" style="endArrow=none;html=1;rounded=0;exitX=0.363;exitY=-0.067;exitDx=0;exitDy=0;exitPerimeter=0;entryX=1;entryY=1;entryDx=0;entryDy=0;" parent="1" source="4bkVH7N1i63I4MIoj6SS-32" target="4bkVH7N1i63I4MIoj6SS-27" edge="1">
          <mxGeometry relative="1" as="geometry">
            <mxPoint x="30" y="306" as="sourcePoint" />
            <mxPoint x="190" y="306" as="targetPoint" />
          </mxGeometry>
        </mxCell>
        <mxCell id="4bkVH7N1i63I4MIoj6SS-37" value="" style="endArrow=none;html=1;rounded=0;exitX=0.644;exitY=0.025;exitDx=0;exitDy=0;exitPerimeter=0;entryX=0.592;entryY=1.017;entryDx=0;entryDy=0;entryPerimeter=0;" parent="1" source="4bkVH7N1i63I4MIoj6SS-27" target="4bkVH7N1i63I4MIoj6SS-29" edge="1">
          <mxGeometry relative="1" as="geometry">
            <mxPoint x="30" y="306" as="sourcePoint" />
            <mxPoint x="190" y="306" as="targetPoint" />
          </mxGeometry>
        </mxCell>
        <mxCell id="4bkVH7N1i63I4MIoj6SS-38" value="" style="endArrow=none;html=1;rounded=0;exitX=1;exitY=0;exitDx=0;exitDy=0;entryX=0;entryY=0.5;entryDx=0;entryDy=0;" parent="1" source="4bkVH7N1i63I4MIoj6SS-27" target="4bkVH7N1i63I4MIoj6SS-30" edge="1">
          <mxGeometry relative="1" as="geometry">
            <mxPoint x="30" y="306" as="sourcePoint" />
            <mxPoint x="190" y="306" as="targetPoint" />
          </mxGeometry>
        </mxCell>
        <mxCell id="4bkVH7N1i63I4MIoj6SS-41" value="Artist_descrip" style="ellipse;whiteSpace=wrap;html=1;align=center;" parent="1" vertex="1">
          <mxGeometry x="230" y="210" width="100" height="30" as="geometry" />
        </mxCell>
        <mxCell id="4bkVH7N1i63I4MIoj6SS-42" value="" style="endArrow=none;html=1;rounded=0;entryX=0;entryY=1;entryDx=0;entryDy=0;" parent="1" target="4bkVH7N1i63I4MIoj6SS-41" edge="1">
          <mxGeometry relative="1" as="geometry">
            <mxPoint x="191" y="280" as="sourcePoint" />
            <mxPoint x="261" y="380" as="targetPoint" />
          </mxGeometry>
        </mxCell>
        <mxCell id="4bkVH7N1i63I4MIoj6SS-43" value="EXHIBITION" style="rounded=0;whiteSpace=wrap;html=1;" parent="1" vertex="1">
          <mxGeometry x="-300.15" y="470" width="80" height="20" as="geometry" />
        </mxCell>
        <mxCell id="4bkVH7N1i63I4MIoj6SS-45" value="Name" style="ellipse;whiteSpace=wrap;html=1;align=center;" parent="1" vertex="1">
          <mxGeometry x="-278.15" y="420" width="51" height="20" as="geometry" />
        </mxCell>
        <mxCell id="4bkVH7N1i63I4MIoj6SS-46" value="End_date" style="ellipse;whiteSpace=wrap;html=1;align=center;" parent="1" vertex="1">
          <mxGeometry x="-378.4" y="490" width="69" height="20" as="geometry" />
        </mxCell>
        <mxCell id="4bkVH7N1i63I4MIoj6SS-53" value="" style="endArrow=none;html=1;rounded=0;exitX=0.644;exitY=0.025;exitDx=0;exitDy=0;exitPerimeter=0;entryX=0.592;entryY=1.017;entryDx=0;entryDy=0;entryPerimeter=0;" parent="1" source="4bkVH7N1i63I4MIoj6SS-43" target="4bkVH7N1i63I4MIoj6SS-45" edge="1">
          <mxGeometry relative="1" as="geometry">
            <mxPoint x="-395.15" y="496" as="sourcePoint" />
            <mxPoint x="-235.15" y="496" as="targetPoint" />
          </mxGeometry>
        </mxCell>
        <mxCell id="4bkVH7N1i63I4MIoj6SS-54" value="" style="endArrow=none;html=1;rounded=0;exitX=0;exitY=0.5;exitDx=0;exitDy=0;entryX=0.5;entryY=0;entryDx=0;entryDy=0;" parent="1" source="4bkVH7N1i63I4MIoj6SS-43" target="4bkVH7N1i63I4MIoj6SS-46" edge="1">
          <mxGeometry relative="1" as="geometry">
            <mxPoint x="-395.15" y="496" as="sourcePoint" />
            <mxPoint x="-235.15" y="496" as="targetPoint" />
          </mxGeometry>
        </mxCell>
        <mxCell id="4bkVH7N1i63I4MIoj6SS-56" value="Start_date" style="ellipse;whiteSpace=wrap;html=1;align=center;" parent="1" vertex="1">
          <mxGeometry x="-216.65" y="410" width="69" height="20" as="geometry" />
        </mxCell>
        <mxCell id="4bkVH7N1i63I4MIoj6SS-57" value="" style="endArrow=none;html=1;rounded=0;entryX=0;entryY=1;entryDx=0;entryDy=0;" parent="1" target="4bkVH7N1i63I4MIoj6SS-56" edge="1">
          <mxGeometry relative="1" as="geometry">
            <mxPoint x="-234.15" y="470" as="sourcePoint" />
            <mxPoint x="-164.15" y="570" as="targetPoint" />
          </mxGeometry>
        </mxCell>
        <mxCell id="KF6m2OH61NZoIcK5nzoi-1" value="Art_type" style="ellipse;whiteSpace=wrap;html=1;" parent="1" vertex="1">
          <mxGeometry x="109" y="655" width="50" height="20" as="geometry" />
        </mxCell>
        <mxCell id="KF6m2OH61NZoIcK5nzoi-3" value="Weight" style="ellipse;whiteSpace=wrap;html=1;" parent="1" vertex="1">
          <mxGeometry x="230" y="785" width="56" height="20" as="geometry" />
        </mxCell>
        <mxCell id="KF6m2OH61NZoIcK5nzoi-4" value="Height" style="ellipse;whiteSpace=wrap;html=1;" parent="1" vertex="1">
          <mxGeometry x="288" y="775" width="48" height="20" as="geometry" />
        </mxCell>
        <mxCell id="KF6m2OH61NZoIcK5nzoi-5" value="Material" style="ellipse;whiteSpace=wrap;html=1;" parent="1" vertex="1">
          <mxGeometry x="306" y="745" width="50" height="20" as="geometry" />
        </mxCell>
        <mxCell id="KF6m2OH61NZoIcK5nzoi-6" value="Style" style="ellipse;whiteSpace=wrap;html=1;" parent="1" vertex="1">
          <mxGeometry x="291.5" y="715" width="41" height="20" as="geometry" />
        </mxCell>
        <mxCell id="KF6m2OH61NZoIcK5nzoi-7" value="" style="endArrow=none;html=1;rounded=0;entryX=0.5;entryY=1;entryDx=0;entryDy=0;exitX=0.5;exitY=0;exitDx=0;exitDy=0;" parent="1" source="KF6m2OH61NZoIcK5nzoi-3" target="aG9_IfBSH0ol4kUv04LN-17" edge="1">
          <mxGeometry width="50" height="50" relative="1" as="geometry">
            <mxPoint x="26" y="845" as="sourcePoint" />
            <mxPoint x="76" y="795" as="targetPoint" />
          </mxGeometry>
        </mxCell>
        <mxCell id="KF6m2OH61NZoIcK5nzoi-8" value="" style="endArrow=none;html=1;rounded=0;entryX=1;entryY=1;entryDx=0;entryDy=0;exitX=0;exitY=0;exitDx=0;exitDy=0;" parent="1" source="KF6m2OH61NZoIcK5nzoi-4" target="aG9_IfBSH0ol4kUv04LN-17" edge="1">
          <mxGeometry width="50" height="50" relative="1" as="geometry">
            <mxPoint x="216" y="845" as="sourcePoint" />
            <mxPoint x="266" y="795" as="targetPoint" />
          </mxGeometry>
        </mxCell>
        <mxCell id="KF6m2OH61NZoIcK5nzoi-9" value="" style="endArrow=none;html=1;rounded=0;entryX=1;entryY=0.5;entryDx=0;entryDy=0;exitX=0;exitY=0.5;exitDx=0;exitDy=0;" parent="1" source="KF6m2OH61NZoIcK5nzoi-5" target="aG9_IfBSH0ol4kUv04LN-17" edge="1">
          <mxGeometry width="50" height="50" relative="1" as="geometry">
            <mxPoint x="216" y="845" as="sourcePoint" />
            <mxPoint x="266" y="795" as="targetPoint" />
          </mxGeometry>
        </mxCell>
        <mxCell id="KF6m2OH61NZoIcK5nzoi-10" value="" style="endArrow=none;html=1;rounded=0;entryX=0;entryY=1;entryDx=0;entryDy=0;exitX=1;exitY=0;exitDx=0;exitDy=0;" parent="1" source="aG9_IfBSH0ol4kUv04LN-17" target="KF6m2OH61NZoIcK5nzoi-6" edge="1">
          <mxGeometry width="50" height="50" relative="1" as="geometry">
            <mxPoint x="216" y="845" as="sourcePoint" />
            <mxPoint x="266" y="795" as="targetPoint" />
          </mxGeometry>
        </mxCell>
        <mxCell id="KF6m2OH61NZoIcK5nzoi-11" value="Epoch" style="ellipse;whiteSpace=wrap;html=1;" parent="1" vertex="1">
          <mxGeometry x="196" y="600" width="50" height="20" as="geometry" />
        </mxCell>
        <mxCell id="KF6m2OH61NZoIcK5nzoi-12" value="Origin" style="ellipse;whiteSpace=wrap;html=1;" parent="1" vertex="1">
          <mxGeometry x="-44" y="661" width="50" height="20" as="geometry" />
        </mxCell>
        <mxCell id="KF6m2OH61NZoIcK5nzoi-13" value="" style="endArrow=none;html=1;rounded=0;entryX=1;entryY=0;entryDx=0;entryDy=0;" parent="1" target="KF6m2OH61NZoIcK5nzoi-12" edge="1">
          <mxGeometry width="50" height="50" relative="1" as="geometry">
            <mxPoint x="30" y="590" as="sourcePoint" />
            <mxPoint y="660" as="targetPoint" />
          </mxGeometry>
        </mxCell>
        <mxCell id="KF6m2OH61NZoIcK5nzoi-14" value="" style="endArrow=none;html=1;rounded=0;exitX=0.604;exitY=1.05;exitDx=0;exitDy=0;entryX=0;entryY=0;entryDx=0;entryDy=0;exitPerimeter=0;" parent="1" source="aG9_IfBSH0ol4kUv04LN-1" target="aG9_IfBSH0ol4kUv04LN-6" edge="1">
          <mxGeometry width="50" height="50" relative="1" as="geometry">
            <mxPoint x="74" y="680" as="sourcePoint" />
            <mxPoint x="120" y="640" as="targetPoint" />
          </mxGeometry>
        </mxCell>
        <mxCell id="KF6m2OH61NZoIcK5nzoi-16" value="" style="endArrow=none;html=1;rounded=0;" parent="1" target="KF6m2OH61NZoIcK5nzoi-1" edge="1">
          <mxGeometry width="50" height="50" relative="1" as="geometry">
            <mxPoint x="90" y="590" as="sourcePoint" />
            <mxPoint x="160" y="640" as="targetPoint" />
          </mxGeometry>
        </mxCell>
        <mxCell id="KF6m2OH61NZoIcK5nzoi-17" value="" style="endArrow=none;html=1;rounded=0;entryX=0;entryY=0.5;entryDx=0;entryDy=0;" parent="1" target="KF6m2OH61NZoIcK5nzoi-11" edge="1">
          <mxGeometry width="50" height="50" relative="1" as="geometry">
            <mxPoint x="100" y="590" as="sourcePoint" />
            <mxPoint x="124" y="630" as="targetPoint" />
          </mxGeometry>
        </mxCell>
        <mxCell id="KF6m2OH61NZoIcK5nzoi-18" value="IN_PERMANENT_COLLECTION" style="rounded=0;whiteSpace=wrap;html=1;" parent="1" vertex="1">
          <mxGeometry x="-366.75" y="627.5" width="186.5" height="20" as="geometry" />
        </mxCell>
        <mxCell id="KF6m2OH61NZoIcK5nzoi-19" value="Date_acquired" style="ellipse;whiteSpace=wrap;html=1;" parent="1" vertex="1">
          <mxGeometry x="-307.75" y="562.5" width="90" height="20" as="geometry" />
        </mxCell>
        <mxCell id="KF6m2OH61NZoIcK5nzoi-20" value="Status" style="ellipse;whiteSpace=wrap;html=1;" parent="1" vertex="1">
          <mxGeometry x="-217.75" y="582.5" width="60" height="20" as="geometry" />
        </mxCell>
        <mxCell id="KF6m2OH61NZoIcK5nzoi-21" value="Cost" style="ellipse;whiteSpace=wrap;html=1;" parent="1" vertex="1">
          <mxGeometry x="-360.25" y="587.5" width="40" height="20" as="geometry" />
        </mxCell>
        <mxCell id="KF6m2OH61NZoIcK5nzoi-26" value="BORROWED" style="shape=rhombus;perimeter=rhombusPerimeter;whiteSpace=wrap;html=1;align=center;" parent="1" vertex="1">
          <mxGeometry x="240.5" y="530" width="120" height="60" as="geometry" />
        </mxCell>
        <mxCell id="KF6m2OH61NZoIcK5nzoi-27" value="" style="endArrow=none;html=1;rounded=0;entryX=0;entryY=0.5;entryDx=0;entryDy=0;exitX=1;exitY=0.75;exitDx=0;exitDy=0;" parent="1" source="aG9_IfBSH0ol4kUv04LN-1" target="KF6m2OH61NZoIcK5nzoi-26" edge="1">
          <mxGeometry relative="1" as="geometry">
            <mxPoint x="34" y="700" as="sourcePoint" />
            <mxPoint x="194" y="700" as="targetPoint" />
          </mxGeometry>
        </mxCell>
        <mxCell id="KF6m2OH61NZoIcK5nzoi-28" value="" style="endArrow=none;html=1;rounded=0;entryX=0.642;entryY=0.961;entryDx=0;entryDy=0;entryPerimeter=0;exitX=0.338;exitY=0.026;exitDx=0;exitDy=0;exitPerimeter=0;" parent="1" source="aG9_IfBSH0ol4kUv04LN-1" target="aG9_IfBSH0ol4kUv04LN-5" edge="1">
          <mxGeometry width="50" height="50" relative="1" as="geometry">
            <mxPoint x="14" y="730" as="sourcePoint" />
            <mxPoint x="64" y="680" as="targetPoint" />
          </mxGeometry>
        </mxCell>
        <mxCell id="KF6m2OH61NZoIcK5nzoi-30" value="" style="shape=link;html=1;rounded=0;exitX=1;exitY=0.5;exitDx=0;exitDy=0;entryX=0;entryY=0.5;entryDx=0;entryDy=0;" parent="1" source="KF6m2OH61NZoIcK5nzoi-26" target="4bkVH7N1i63I4MIoj6SS-14" edge="1">
          <mxGeometry width="100" relative="1" as="geometry">
            <mxPoint x="394" y="830" as="sourcePoint" />
            <mxPoint x="494" y="830" as="targetPoint" />
          </mxGeometry>
        </mxCell>
        <mxCell id="KF6m2OH61NZoIcK5nzoi-33" value="Date_borrowed" style="ellipse;whiteSpace=wrap;html=1;" parent="1" vertex="1">
          <mxGeometry x="204" y="480" width="100" height="20" as="geometry" />
        </mxCell>
        <mxCell id="KF6m2OH61NZoIcK5nzoi-34" value="Date_returned" style="ellipse;whiteSpace=wrap;html=1;" parent="1" vertex="1">
          <mxGeometry x="319.5" y="490" width="94.5" height="20" as="geometry" />
        </mxCell>
        <mxCell id="KF6m2OH61NZoIcK5nzoi-36" value="" style="endArrow=none;html=1;rounded=0;entryX=0.5;entryY=1;entryDx=0;entryDy=0;exitX=0;exitY=0;exitDx=0;exitDy=0;" parent="1" source="KF6m2OH61NZoIcK5nzoi-26" target="KF6m2OH61NZoIcK5nzoi-33" edge="1">
          <mxGeometry width="50" height="50" relative="1" as="geometry">
            <mxPoint x="254" y="640" as="sourcePoint" />
            <mxPoint x="304" y="590" as="targetPoint" />
          </mxGeometry>
        </mxCell>
        <mxCell id="KF6m2OH61NZoIcK5nzoi-37" value="" style="endArrow=none;html=1;rounded=0;entryX=0.3;entryY=0.967;entryDx=0;entryDy=0;entryPerimeter=0;exitX=0.665;exitY=0.169;exitDx=0;exitDy=0;exitPerimeter=0;" parent="1" source="KF6m2OH61NZoIcK5nzoi-26" target="KF6m2OH61NZoIcK5nzoi-34" edge="1">
          <mxGeometry width="50" height="50" relative="1" as="geometry">
            <mxPoint x="254" y="640" as="sourcePoint" />
            <mxPoint x="304" y="590" as="targetPoint" />
          </mxGeometry>
        </mxCell>
        <mxCell id="KF6m2OH61NZoIcK5nzoi-38" value="N" style="text;html=1;align=center;verticalAlign=middle;resizable=0;points=[];autosize=1;strokeColor=none;fillColor=none;" parent="1" vertex="1">
          <mxGeometry x="226" y="535" width="30" height="30" as="geometry" />
        </mxCell>
        <mxCell id="KF6m2OH61NZoIcK5nzoi-39" value="1" style="text;html=1;align=center;verticalAlign=middle;resizable=0;points=[];autosize=1;strokeColor=none;fillColor=none;" parent="1" vertex="1">
          <mxGeometry x="346.5" y="535" width="30" height="30" as="geometry" />
        </mxCell>
        <mxCell id="KF6m2OH61NZoIcK5nzoi-40" value="d" style="ellipse;whiteSpace=wrap;html=1;aspect=fixed;" parent="1" vertex="1">
          <mxGeometry x="51" y="710" width="20" height="20" as="geometry" />
        </mxCell>
        <mxCell id="KF6m2OH61NZoIcK5nzoi-41" value="" style="shape=link;html=1;rounded=0;exitX=0.5;exitY=1;exitDx=0;exitDy=0;entryX=0.5;entryY=0;entryDx=0;entryDy=0;" parent="1" source="aG9_IfBSH0ol4kUv04LN-1" target="KF6m2OH61NZoIcK5nzoi-40" edge="1">
          <mxGeometry width="100" relative="1" as="geometry">
            <mxPoint x="-6" y="690" as="sourcePoint" />
            <mxPoint x="94" y="690" as="targetPoint" />
          </mxGeometry>
        </mxCell>
        <mxCell id="KF6m2OH61NZoIcK5nzoi-43" value="" style="endArrow=none;html=1;rounded=0;entryX=0;entryY=0.5;entryDx=0;entryDy=0;exitX=1;exitY=0.25;exitDx=0;exitDy=0;" parent="1" source="aG9_IfBSH0ol4kUv04LN-15" target="KF6m2OH61NZoIcK5nzoi-40" edge="1">
          <mxGeometry width="50" height="50" relative="1" as="geometry">
            <mxPoint x="-74" y="840" as="sourcePoint" />
            <mxPoint x="-24" y="790" as="targetPoint" />
          </mxGeometry>
        </mxCell>
        <mxCell id="KF6m2OH61NZoIcK5nzoi-44" value="" style="endArrow=none;html=1;rounded=0;entryX=0;entryY=1;entryDx=0;entryDy=0;exitX=0.5;exitY=0;exitDx=0;exitDy=0;" parent="1" source="aG9_IfBSH0ol4kUv04LN-32" target="KF6m2OH61NZoIcK5nzoi-40" edge="1">
          <mxGeometry width="50" height="50" relative="1" as="geometry">
            <mxPoint x="-34" y="770" as="sourcePoint" />
            <mxPoint x="-24" y="790" as="targetPoint" />
          </mxGeometry>
        </mxCell>
        <mxCell id="KF6m2OH61NZoIcK5nzoi-45" value="" style="endArrow=none;html=1;rounded=0;exitX=0.5;exitY=0;exitDx=0;exitDy=0;entryX=1;entryY=1;entryDx=0;entryDy=0;" parent="1" source="aG9_IfBSH0ol4kUv04LN-16" target="KF6m2OH61NZoIcK5nzoi-40" edge="1">
          <mxGeometry width="50" height="50" relative="1" as="geometry">
            <mxPoint x="-74" y="840" as="sourcePoint" />
            <mxPoint x="76" y="730" as="targetPoint" />
          </mxGeometry>
        </mxCell>
        <mxCell id="KF6m2OH61NZoIcK5nzoi-46" value="" style="endArrow=none;html=1;rounded=0;entryX=0;entryY=0.5;entryDx=0;entryDy=0;exitX=1;exitY=0.5;exitDx=0;exitDy=0;" parent="1" source="KF6m2OH61NZoIcK5nzoi-40" target="aG9_IfBSH0ol4kUv04LN-17" edge="1">
          <mxGeometry width="50" height="50" relative="1" as="geometry">
            <mxPoint x="146" y="780" as="sourcePoint" />
            <mxPoint x="196" y="730" as="targetPoint" />
          </mxGeometry>
        </mxCell>
        <mxCell id="mKaLi4qA4PhpkIRhGY83-1" value="" style="shape=requiredInterface;html=1;verticalLabelPosition=bottom;sketch=0;rotation=-210;" parent="1" vertex="1">
          <mxGeometry x="-24" y="740" width="20" height="20" as="geometry" />
        </mxCell>
        <mxCell id="mKaLi4qA4PhpkIRhGY83-3" value="" style="shape=requiredInterface;html=1;verticalLabelPosition=bottom;sketch=0;rotation=120;" parent="1" vertex="1">
          <mxGeometry x="18.5" y="750" width="20" height="20" as="geometry" />
        </mxCell>
        <mxCell id="mKaLi4qA4PhpkIRhGY83-5" value="" style="shape=requiredInterface;html=1;verticalLabelPosition=bottom;sketch=0;rotation=60;" parent="1" vertex="1">
          <mxGeometry x="76" y="750" width="23" height="20" as="geometry" />
        </mxCell>
        <mxCell id="mKaLi4qA4PhpkIRhGY83-9" value="" style="shape=requiredInterface;html=1;verticalLabelPosition=bottom;sketch=0;rotation=15;" parent="1" vertex="1">
          <mxGeometry x="136" y="725" width="20" height="20" as="geometry" />
        </mxCell>
        <mxCell id="mKaLi4qA4PhpkIRhGY83-12" value="" style="endArrow=none;html=1;rounded=0;exitX=1;exitY=0.5;exitDx=0;exitDy=0;entryX=0;entryY=0.75;entryDx=0;entryDy=0;" parent="1" source="4bkVH7N1i63I4MIoj6SS-31" target="4bkVH7N1i63I4MIoj6SS-27" edge="1">
          <mxGeometry width="50" height="50" relative="1" as="geometry">
            <mxPoint x="351" y="380" as="sourcePoint" />
            <mxPoint x="401" y="330" as="targetPoint" />
          </mxGeometry>
        </mxCell>
        <mxCell id="mKaLi4qA4PhpkIRhGY83-13" value="Art_Type" style="text;html=1;align=center;verticalAlign=middle;resizable=0;points=[];autosize=1;strokeColor=none;fillColor=none;" parent="1" vertex="1">
          <mxGeometry x="55" y="681" width="70" height="30" as="geometry" />
        </mxCell>
        <mxCell id="mKaLi4qA4PhpkIRhGY83-15" value="&quot;Painting&quot;" style="text;html=1;align=center;verticalAlign=middle;resizable=0;points=[];autosize=1;strokeColor=none;fillColor=none;" parent="1" vertex="1">
          <mxGeometry x="-69" y="710" width="80" height="30" as="geometry" />
        </mxCell>
        <mxCell id="mKaLi4qA4PhpkIRhGY83-16" value="&quot;Other&quot;" style="text;html=1;align=center;verticalAlign=middle;resizable=0;points=[];autosize=1;strokeColor=none;fillColor=none;" parent="1" vertex="1">
          <mxGeometry x="-44" y="760" width="60" height="30" as="geometry" />
        </mxCell>
        <mxCell id="mKaLi4qA4PhpkIRhGY83-17" value="&quot;Sculpture&quot;" style="text;html=1;align=center;verticalAlign=middle;resizable=0;points=[];autosize=1;strokeColor=none;fillColor=none;" parent="1" vertex="1">
          <mxGeometry x="21" y="765" width="80" height="30" as="geometry" />
        </mxCell>
        <mxCell id="mKaLi4qA4PhpkIRhGY83-18" value="&quot;Statue&quot;" style="text;html=1;align=center;verticalAlign=middle;resizable=0;points=[];autosize=1;strokeColor=none;fillColor=none;" parent="1" vertex="1">
          <mxGeometry x="146" y="710" width="70" height="30" as="geometry" />
        </mxCell>
        <mxCell id="mKaLi4qA4PhpkIRhGY83-21" value="" style="endArrow=none;html=1;rounded=0;entryX=0.5;entryY=1;entryDx=0;entryDy=0;exitX=0.5;exitY=0;exitDx=0;exitDy=0;" parent="1" source="KF6m2OH61NZoIcK5nzoi-18" target="KF6m2OH61NZoIcK5nzoi-19" edge="1">
          <mxGeometry width="50" height="50" relative="1" as="geometry">
            <mxPoint x="-200.25" y="717.5" as="sourcePoint" />
            <mxPoint x="-150.25" y="667.5" as="targetPoint" />
          </mxGeometry>
        </mxCell>
        <mxCell id="mKaLi4qA4PhpkIRhGY83-22" value="" style="endArrow=none;html=1;rounded=0;entryX=1;entryY=1;entryDx=0;entryDy=0;exitX=0.25;exitY=0;exitDx=0;exitDy=0;" parent="1" source="KF6m2OH61NZoIcK5nzoi-18" target="KF6m2OH61NZoIcK5nzoi-21" edge="1">
          <mxGeometry width="50" height="50" relative="1" as="geometry">
            <mxPoint x="-200.25" y="717.5" as="sourcePoint" />
            <mxPoint x="-150.25" y="667.5" as="targetPoint" />
          </mxGeometry>
        </mxCell>
        <mxCell id="mKaLi4qA4PhpkIRhGY83-23" value="" style="endArrow=none;html=1;rounded=0;entryX=0;entryY=1;entryDx=0;entryDy=0;exitX=0.75;exitY=0;exitDx=0;exitDy=0;" parent="1" source="KF6m2OH61NZoIcK5nzoi-18" target="KF6m2OH61NZoIcK5nzoi-20" edge="1">
          <mxGeometry width="50" height="50" relative="1" as="geometry">
            <mxPoint x="-200.25" y="717.5" as="sourcePoint" />
            <mxPoint x="-150.25" y="667.5" as="targetPoint" />
          </mxGeometry>
        </mxCell>
        <mxCell id="mKaLi4qA4PhpkIRhGY83-26" value="" style="endArrow=none;html=1;rounded=0;entryX=0.724;entryY=0.947;entryDx=0;entryDy=0;entryPerimeter=0;exitX=0.25;exitY=0;exitDx=0;exitDy=0;" parent="1" source="4bkVH7N1i63I4MIoj6SS-27" target="4bkVH7N1i63I4MIoj6SS-28" edge="1">
          <mxGeometry width="50" height="50" relative="1" as="geometry">
            <mxPoint x="107" y="390" as="sourcePoint" />
            <mxPoint x="157" y="340" as="targetPoint" />
          </mxGeometry>
        </mxCell>
        <mxCell id="mKaLi4qA4PhpkIRhGY83-27" value="" style="endArrow=none;html=1;rounded=0;entryX=0;entryY=0.5;entryDx=0;entryDy=0;exitX=1;exitY=0.5;exitDx=0;exitDy=0;" parent="1" source="4bkVH7N1i63I4MIoj6SS-27" target="4bkVH7N1i63I4MIoj6SS-33" edge="1">
          <mxGeometry width="50" height="50" relative="1" as="geometry">
            <mxPoint x="107" y="390" as="sourcePoint" />
            <mxPoint x="157" y="340" as="targetPoint" />
          </mxGeometry>
        </mxCell>
        <mxCell id="mKaLi4qA4PhpkIRhGY83-28" value="CREATED_BY" style="shape=rhombus;perimeter=rhombusPerimeter;whiteSpace=wrap;html=1;align=center;" parent="1" vertex="1">
          <mxGeometry x="84" y="380" width="120" height="60" as="geometry" />
        </mxCell>
        <mxCell id="mKaLi4qA4PhpkIRhGY83-29" value="" style="shape=link;html=1;rounded=0;entryX=0.5;entryY=1;entryDx=0;entryDy=0;exitX=0.5;exitY=0;exitDx=0;exitDy=0;" parent="1" source="mKaLi4qA4PhpkIRhGY83-28" target="4bkVH7N1i63I4MIoj6SS-27" edge="1">
          <mxGeometry width="100" relative="1" as="geometry">
            <mxPoint x="70" y="500" as="sourcePoint" />
            <mxPoint x="160" y="310" as="targetPoint" />
          </mxGeometry>
        </mxCell>
        <mxCell id="mKaLi4qA4PhpkIRhGY83-30" value="" style="endArrow=none;html=1;rounded=0;exitX=0.75;exitY=0;exitDx=0;exitDy=0;entryX=0.5;entryY=1;entryDx=0;entryDy=0;" parent="1" source="aG9_IfBSH0ol4kUv04LN-1" target="mKaLi4qA4PhpkIRhGY83-28" edge="1">
          <mxGeometry width="50" height="50" relative="1" as="geometry">
            <mxPoint x="100" y="520" as="sourcePoint" />
            <mxPoint x="150" y="470" as="targetPoint" />
          </mxGeometry>
        </mxCell>
        <mxCell id="mKaLi4qA4PhpkIRhGY83-31" value="1" style="text;html=1;align=center;verticalAlign=middle;resizable=0;points=[];autosize=1;strokeColor=none;fillColor=none;" parent="1" vertex="1">
          <mxGeometry x="119" y="360" width="30" height="30" as="geometry" />
        </mxCell>
        <mxCell id="mKaLi4qA4PhpkIRhGY83-32" value="N" style="text;html=1;align=center;verticalAlign=middle;resizable=0;points=[];autosize=1;strokeColor=none;fillColor=none;" parent="1" vertex="1">
          <mxGeometry x="114" y="430" width="30" height="30" as="geometry" />
        </mxCell>
        <mxCell id="mKaLi4qA4PhpkIRhGY83-39" value="" style="endArrow=none;html=1;rounded=0;entryX=0;entryY=0.75;entryDx=0;entryDy=0;exitX=1;exitY=0.5;exitDx=0;exitDy=0;" parent="1" source="KF6m2OH61NZoIcK5nzoi-18" target="aG9_IfBSH0ol4kUv04LN-1" edge="1">
          <mxGeometry width="50" height="50" relative="1" as="geometry">
            <mxPoint x="10" y="670" as="sourcePoint" />
            <mxPoint x="60" y="620" as="targetPoint" />
          </mxGeometry>
        </mxCell>
        <mxCell id="mKaLi4qA4PhpkIRhGY83-42" value="" style="shape=requiredInterface;html=1;verticalLabelPosition=bottom;sketch=0;rotation=-195;" parent="1" vertex="1">
          <mxGeometry x="-111.25" y="606" width="20.5" height="20" as="geometry" />
        </mxCell>
        <mxCell id="CHMd77DNPbvqnc77Pzw--1" value="E_id" style="ellipse;whiteSpace=wrap;html=1;align=center;fontStyle=4;" parent="1" vertex="1">
          <mxGeometry x="-335.15" y="440" width="56" height="20" as="geometry" />
        </mxCell>
        <mxCell id="CHMd77DNPbvqnc77Pzw--2" value="" style="endArrow=none;html=1;rounded=0;exitX=0.5;exitY=1;exitDx=0;exitDy=0;" parent="1" source="CHMd77DNPbvqnc77Pzw--1" edge="1">
          <mxGeometry relative="1" as="geometry">
            <mxPoint x="-284.15" y="540" as="sourcePoint" />
            <mxPoint x="-284.15" y="470" as="targetPoint" />
          </mxGeometry>
        </mxCell>
        <mxCell id="CHMd77DNPbvqnc77Pzw--3" value="ON_DISPLAY" style="shape=rhombus;perimeter=rhombusPerimeter;whiteSpace=wrap;html=1;align=center;" parent="1" vertex="1">
          <mxGeometry x="-147.65" y="490" width="120" height="50" as="geometry" />
        </mxCell>
        <mxCell id="CHMd77DNPbvqnc77Pzw--5" value="" style="endArrow=none;html=1;rounded=0;exitX=1;exitY=0.5;exitDx=0;exitDy=0;entryX=0;entryY=0;entryDx=0;entryDy=0;" parent="1" source="CHMd77DNPbvqnc77Pzw--3" target="aG9_IfBSH0ol4kUv04LN-1" edge="1">
          <mxGeometry relative="1" as="geometry">
            <mxPoint x="-230" y="520" as="sourcePoint" />
            <mxPoint x="-70" y="520" as="targetPoint" />
          </mxGeometry>
        </mxCell>
        <mxCell id="CHMd77DNPbvqnc77Pzw--6" value="" style="shape=link;html=1;rounded=0;exitX=1;exitY=0.5;exitDx=0;exitDy=0;entryX=0;entryY=0.5;entryDx=0;entryDy=0;" parent="1" source="4bkVH7N1i63I4MIoj6SS-43" target="CHMd77DNPbvqnc77Pzw--3" edge="1">
          <mxGeometry relative="1" as="geometry">
            <mxPoint x="-230" y="520" as="sourcePoint" />
            <mxPoint x="-70" y="520" as="targetPoint" />
          </mxGeometry>
        </mxCell>
        <mxCell id="CHMd77DNPbvqnc77Pzw--7" value="N" style="resizable=0;html=1;align=right;verticalAlign=bottom;" parent="CHMd77DNPbvqnc77Pzw--6" connectable="0" vertex="1">
          <mxGeometry x="1" relative="1" as="geometry">
            <mxPoint x="9" y="-5" as="offset" />
          </mxGeometry>
        </mxCell>
        <mxCell id="CHMd77DNPbvqnc77Pzw--8" value="M" style="resizable=0;html=1;align=right;verticalAlign=bottom;" parent="1" connectable="0" vertex="1">
          <mxGeometry x="-139.99918090992023" y="515.0011664165265" as="geometry">
            <mxPoint x="115" y="-1" as="offset" />
          </mxGeometry>
        </mxCell>
        <mxCell id="2kq-_NsFYds3TW6UUpTx-1" value="Fname" style="ellipse;whiteSpace=wrap;html=1;" vertex="1" parent="1">
          <mxGeometry x="104" y="170" width="64" height="30" as="geometry" />
        </mxCell>
        <mxCell id="2kq-_NsFYds3TW6UUpTx-2" value="Lname" style="ellipse;whiteSpace=wrap;html=1;" vertex="1" parent="1">
          <mxGeometry x="175" y="170" width="59" height="30" as="geometry" />
        </mxCell>
        <mxCell id="2kq-_NsFYds3TW6UUpTx-3" value="" style="endArrow=none;html=1;rounded=0;entryX=0.5;entryY=1;entryDx=0;entryDy=0;exitX=0;exitY=0;exitDx=0;exitDy=0;" edge="1" parent="1" source="4bkVH7N1i63I4MIoj6SS-29" target="2kq-_NsFYds3TW6UUpTx-1">
          <mxGeometry width="50" height="50" relative="1" as="geometry">
            <mxPoint x="170" y="380" as="sourcePoint" />
            <mxPoint x="220" y="330" as="targetPoint" />
          </mxGeometry>
        </mxCell>
        <mxCell id="2kq-_NsFYds3TW6UUpTx-4" value="" style="endArrow=none;html=1;rounded=0;entryX=0.5;entryY=1;entryDx=0;entryDy=0;exitX=1;exitY=0;exitDx=0;exitDy=0;" edge="1" parent="1" source="4bkVH7N1i63I4MIoj6SS-29" target="2kq-_NsFYds3TW6UUpTx-2">
          <mxGeometry width="50" height="50" relative="1" as="geometry">
            <mxPoint x="170" y="380" as="sourcePoint" />
            <mxPoint x="220" y="330" as="targetPoint" />
          </mxGeometry>
        </mxCell>
        <mxCell id="2kq-_NsFYds3TW6UUpTx-7" value="Artist" style="ellipse;whiteSpace=wrap;html=1;" vertex="1" parent="1">
          <mxGeometry x="149" y="630" width="44" height="19" as="geometry" />
        </mxCell>
        <mxCell id="2kq-_NsFYds3TW6UUpTx-8" value="" style="endArrow=none;html=1;rounded=0;exitX=0;exitY=0;exitDx=0;exitDy=0;entryX=0.909;entryY=1.05;entryDx=0;entryDy=0;entryPerimeter=0;" edge="1" parent="1" source="2kq-_NsFYds3TW6UUpTx-7" target="aG9_IfBSH0ol4kUv04LN-1">
          <mxGeometry width="50" height="50" relative="1" as="geometry">
            <mxPoint y="590" as="sourcePoint" />
            <mxPoint x="50" y="540" as="targetPoint" />
          </mxGeometry>
        </mxCell>
        <mxCell id="2kq-_NsFYds3TW6UUpTx-9" value="Artist_Fname" style="ellipse;whiteSpace=wrap;html=1;" vertex="1" parent="1">
          <mxGeometry x="211.5" y="635" width="80" height="20" as="geometry" />
        </mxCell>
        <mxCell id="2kq-_NsFYds3TW6UUpTx-10" value="Artist_Lname" style="ellipse;whiteSpace=wrap;html=1;" vertex="1" parent="1">
          <mxGeometry x="190" y="662" width="78.5" height="19" as="geometry" />
        </mxCell>
        <mxCell id="2kq-_NsFYds3TW6UUpTx-11" value="" style="endArrow=none;html=1;rounded=0;entryX=0;entryY=0.5;entryDx=0;entryDy=0;exitX=1;exitY=0.5;exitDx=0;exitDy=0;" edge="1" parent="1" source="2kq-_NsFYds3TW6UUpTx-7" target="2kq-_NsFYds3TW6UUpTx-9">
          <mxGeometry width="50" height="50" relative="1" as="geometry">
            <mxPoint y="590" as="sourcePoint" />
            <mxPoint x="50" y="540" as="targetPoint" />
          </mxGeometry>
        </mxCell>
        <mxCell id="2kq-_NsFYds3TW6UUpTx-12" value="" style="endArrow=none;html=1;rounded=0;entryX=1;entryY=1;entryDx=0;entryDy=0;exitX=0;exitY=0;exitDx=0;exitDy=0;" edge="1" parent="1" source="2kq-_NsFYds3TW6UUpTx-10" target="2kq-_NsFYds3TW6UUpTx-7">
          <mxGeometry width="50" height="50" relative="1" as="geometry">
            <mxPoint y="590" as="sourcePoint" />
            <mxPoint x="50" y="540" as="targetPoint" />
          </mxGeometry>
        </mxCell>
      </root>
    </mxGraphModel>
  </diagram>
</mxfile>
